<svg id="visual" viewBox="0 0 900 600" width="900" height="600" xmlns="http://www.w3.org/2000/svg" xmlns:xlink="http://www.w3.org/1999/xlink" version="1.1"><rect x="0" y="0" width="900" height="600" fill="#B4D6CD"></rect><path d="M231 0L279.2 20C327.3 40 423.7 80 460.2 120C496.7 160 473.3 200 453.2 240C433 280 416 320 411.3 360C406.7 400 414.3 440 440.8 480C467.3 520 512.7 560 535.3 580L558 600L0 600L0 580C0 560 0 520 0 480C0 440 0 400 0 360C0 320 0 280 0 240C0 200 0 160 0 120C0 80 0 40 0 20L0 0Z" fill="#000" stroke-linecap="round" stroke-linejoin="miter"></path></svg>