<svg id="visual" viewBox="0 0 900 600" width="900" height="600" xmlns="http://www.w3.org/2000/svg" xmlns:xlink="http://www.w3.org/1999/xlink" version="1.1"><rect x="0" y="0" width="900" height="600" fill="#fff"></rect><defs><linearGradient id="grad1_0" x1="33.3%" y1="0%" x2="100%" y2="100%"><stop offset="20%" stop-color="#ffffff" stop-opacity="1"></stop><stop offset="80%" stop-color="#ffffff" stop-opacity="1"></stop></linearGradient></defs><defs><linearGradient id="grad2_0" x1="0%" y1="0%" x2="66.7%" y2="100%"><stop offset="20%" stop-color="#ffffff" stop-opacity="1"></stop><stop offset="80%" stop-color="#ffffff" stop-opacity="1"></stop></linearGradient></defs><g transform="translate(900, 0)"><path d="M0 486.7C-63.2 480 -126.3 473.2 -186.3 449.7C-246.2 426.2 -302.9 385.8 -334.5 334.5C-366 283.1 -372.4 220.6 -393.6 163C-414.8 105.4 -450.8 52.7 -486.7 0L0 0Z" fill="#1B1A55"></path></g><g transform="translate(0, 600)"><path d="M0 -486.7C56.2 -463.3 112.4 -439.8 174.1 -420.4C235.9 -400.9 303.1 -385.6 344.2 -344.2C385.2 -302.8 400.1 -235.4 419.4 -173.7C438.8 -112 462.8 -56 486.7 0L0 0Z" fill="#1B1A55"></path></g></svg>