<svg id="visual" viewBox="0 0 900 600" width="900" height="600" xmlns="http://www.w3.org/2000/svg" xmlns:xlink="http://www.w3.org/1999/xlink" version="1.1"><rect x="0" y="0" width="900" height="600" fill="#002233"></rect><path d="M396 0L389.7 16.7C383.3 33.3 370.7 66.7 390.5 100C410.3 133.3 462.7 166.7 480.2 200C497.7 233.3 480.3 266.7 432.2 300C384 333.3 305 366.7 274 400C243 433.3 260 466.7 278 500C296 533.3 315 566.7 324.5 583.3L334 600L0 600L0 583.3C0 566.7 0 533.3 0 500C0 466.7 0 433.3 0 400C0 366.7 0 333.3 0 300C0 266.7 0 233.3 0 200C0 166.7 0 133.3 0 100C0 66.7 0 33.3 0 16.7L0 0Z" fill="#0066FF" stroke-linecap="round" stroke-linejoin="miter"></path></svg>