<?xml version="1.0" standalone="no"?><svg xmlns="http://www.w3.org/2000/svg" viewBox="0 0 1440 320"><path fill="#a45ee5" fill-opacity="1" d="M0,32L30,48C60,64,120,96,180,106.7C240,117,300,107,360,96C420,85,480,75,540,106.7C600,139,660,213,720,218.7C780,224,840,160,900,160C960,160,1020,224,1080,261.3C1140,299,1200,309,1260,304C1320,299,1380,277,1410,266.7L1440,256L1440,320L1410,320C1380,320,1320,320,1260,320C1200,320,1140,320,1080,320C1020,320,960,320,900,320C840,320,780,320,720,320C660,320,600,320,540,320C480,320,420,320,360,320C300,320,240,320,180,320C120,320,60,320,30,320L0,320Z"></path></svg>