<svg id="visual" viewBox="0 0 900 600" width="900" height="600" xmlns="http://www.w3.org/2000/svg" xmlns:xlink="http://www.w3.org/1999/xlink" version="1.1"><rect x="0" y="0" width="900" height="600" fill="#fff"></rect><defs><linearGradient id="grad1_0" x1="33.3%" y1="0%" x2="100%" y2="100%"><stop offset="20%" stop-color="#ffffff" stop-opacity="1"></stop><stop offset="80%" stop-color="#ffffff" stop-opacity="1"></stop></linearGradient></defs><defs><linearGradient id="grad2_0" x1="0%" y1="0%" x2="66.7%" y2="100%"><stop offset="20%" stop-color="#ffffff" stop-opacity="1"></stop><stop offset="80%" stop-color="#ffffff" stop-opacity="1"></stop></linearGradient></defs><g transform="translate(900, 0)"><path d="M0 486.7C-62 462.7 -124.1 438.6 -166.5 401.9C-208.9 365.2 -231.6 315.8 -282.1 282.1C-332.7 248.5 -411 230.7 -449.7 186.3C-488.4 141.9 -487.6 70.9 -486.7 0L0 0Z" fill="#66347F"></path></g><g transform="translate(0, 600)"><path d="M0 -486.7C55.6 -453.1 111.3 -419.4 162.3 -391.7C213.2 -364 259.5 -342.2 311.1 -311.1C362.7 -280 419.5 -239.7 449.7 -186.3C479.8 -132.9 483.3 -66.4 486.7 0L0 0Z" fill="#66347F"></path></g></svg>