<svg id="visual" viewBox="0 0 900 600" width="900" height="600" xmlns="http://www.w3.org/2000/svg" xmlns:xlink="http://www.w3.org/1999/xlink" version="1.1"><rect x="0" y="0" width="900" height="600" fill="#fff"></rect><path d="M0 261L21.5 242C43 223 86 185 128.8 176C171.7 167 214.3 187 257.2 229.3C300 271.7 343 336.3 385.8 375C428.7 413.7 471.3 426.3 514.2 427.8C557 429.3 600 419.7 642.8 369.8C685.7 320 728.3 230 771.2 226.5C814 223 857 306 878.5 347.5L900 389L900 0L878.5 0C857 0 814 0 771.2 0C728.3 0 685.7 0 642.8 0C600 0 557 0 514.2 0C471.3 0 428.7 0 385.8 0C343 0 300 0 257.2 0C214.3 0 171.7 0 128.8 0C86 0 43 0 21.5 0L0 0Z" fill="#8E7AB5" stroke-linecap="round" stroke-linejoin="miter"></path></svg>