<svg id="visual" viewBox="0 0 900 600" width="900" height="600" xmlns="http://www.w3.org/2000/svg" xmlns:xlink="http://www.w3.org/1999/xlink" version="1.1"><rect x="0" y="0" width="900" height="600" fill="#002233"></rect><path d="M0 409L21.5 386.7C43 364.3 86 319.7 128.8 298C171.7 276.3 214.3 277.7 257.2 280.7C300 283.7 343 288.3 385.8 313C428.7 337.7 471.3 382.3 514.2 395.7C557 409 600 391 642.8 342.5C685.7 294 728.3 215 771.2 195.3C814 175.7 857 215.3 878.5 235.2L900 255L900 0L878.5 0C857 0 814 0 771.2 0C728.3 0 685.7 0 642.8 0C600 0 557 0 514.2 0C471.3 0 428.7 0 385.8 0C343 0 300 0 257.2 0C214.3 0 171.7 0 128.8 0C86 0 43 0 21.5 0L0 0Z" fill="#0066FF" stroke-linecap="round" stroke-linejoin="miter"></path></svg>